<svg width="100" height="100" viewBox="0 0 100 100" fill="none" xmlns="http://www.w3.org/2000/svg">
<path d="M71.7399 74.245C70.6147 75.3701 69.0887 76.0022 67.4974 76.0022C65.9062 76.0022 64.3801 75.3701 63.2549 74.245L49.9999 59.095L36.7449 74.24C36.1895 74.8046 35.5277 75.2536 34.7978 75.5612C34.0679 75.8688 33.2844 76.0288 32.4923 76.032C31.7003 76.0352 30.9154 75.8816 30.1831 75.58C29.4507 75.2784 28.7853 74.8348 28.2252 74.2747C27.6652 73.7146 27.2216 73.0492 26.92 72.3169C26.6183 71.5845 26.4647 70.7997 26.4679 70.0076C26.4712 69.2156 26.6312 68.432 26.9387 67.7021C27.2463 66.9723 27.6953 66.3105 28.2599 65.755L42.0499 50.005L28.2549 34.245C27.6903 33.6895 27.2413 33.0278 26.9337 32.2979C26.6262 31.568 26.4662 30.7844 26.4629 29.9924C26.4597 29.2004 26.6133 28.4155 26.915 27.6831C27.2166 26.9508 27.6602 26.2854 28.2202 25.7253C28.7803 25.1653 29.4457 24.7216 30.1781 24.42C30.9104 24.1184 31.6953 23.9648 32.4873 23.968C33.2794 23.9712 34.0629 24.1312 34.7928 24.4388C35.5227 24.7464 36.1845 25.1954 36.7399 25.76L49.9999 40.915L63.2549 25.76C63.8104 25.1954 64.4722 24.7464 65.2021 24.4388C65.932 24.1312 66.7155 23.9712 67.5076 23.968C68.2996 23.9648 69.0844 24.1184 69.8168 24.42C70.5492 24.7216 71.2146 25.1653 71.7746 25.7253C72.3347 26.2854 72.7783 26.9508 73.0799 27.6831C73.3815 28.4155 73.5352 29.2004 73.5319 29.9924C73.5287 30.7844 73.3687 31.568 73.0611 32.2979C72.7536 33.0278 72.3045 33.6895 71.7399 34.245L57.9499 50.005L71.7399 65.755C72.2978 66.3122 72.7404 66.974 73.0423 67.7024C73.3442 68.4308 73.4997 69.2115 73.4997 70C73.4997 70.7885 73.3442 71.5693 73.0423 72.2976C72.7404 73.026 72.2978 73.6878 71.7399 74.245Z" fill="#FF0000"/>
</svg>
