<svg width="70" height="70" viewBox="0 0 70 70" fill="none" xmlns="http://www.w3.org/2000/svg">
<path d="M53.5938 0H16.4062C7.34533 0 0 7.34533 0 16.4062V53.5938C0 62.6547 7.34533 70 16.4062 70H53.5938C62.6547 70 70 62.6547 70 53.5938V16.4062C70 7.34533 62.6547 0 53.5938 0Z" fill="#1E1E1E"/>
<mask id="mask0_1_12" style="mask-type:luminance" maskUnits="userSpaceOnUse" x="7" y="13" width="56" height="44">
<path d="M7.65625 13.9453H62.3438V56.309H7.65625V13.9453Z" fill="white"/>
</mask>
<g mask="url(#mask0_1_12)">
<path d="M53.9515 17.7181C50.4059 16.0908 46.6642 14.9303 42.8201 14.2655C42.7852 14.2591 42.7491 14.2638 42.717 14.279C42.685 14.2942 42.6585 14.3191 42.6413 14.3502C42.1606 15.205 41.6279 16.3206 41.2552 17.1972C37.0517 16.5678 32.87 16.5678 28.7528 17.1972C28.3799 16.3009 27.8281 15.205 27.3452 14.3502C27.3274 14.3196 27.3008 14.2952 27.2688 14.28C27.2368 14.2649 27.201 14.2598 27.1661 14.2655C23.3216 14.9288 19.5797 16.0894 16.0347 17.7181C16.0045 17.7313 15.979 17.7532 15.9614 17.781C8.87176 28.3729 6.9298 38.7045 7.88246 48.9081C7.88827 48.9585 7.91384 49.0045 7.95355 49.036C12.631 52.4712 17.1621 54.5567 21.609 55.939C21.6436 55.9492 21.6805 55.9487 21.7148 55.9374C21.7491 55.9262 21.7791 55.9048 21.801 55.8761C22.8529 54.4394 23.7905 52.9249 24.5947 51.3321C24.6058 51.3103 24.6121 51.2864 24.6132 51.2619C24.6144 51.2375 24.6104 51.2131 24.6014 51.1903C24.5924 51.1676 24.5787 51.1469 24.5612 51.1299C24.5437 51.1128 24.5228 51.0996 24.4998 51.0912C23.0123 50.5268 21.5962 49.8391 20.2339 49.0579C20.2091 49.0433 20.1883 49.0228 20.1732 48.9982C20.1582 48.9737 20.1495 48.9458 20.1478 48.917C20.1461 48.8883 20.1515 48.8596 20.1635 48.8334C20.1755 48.8072 20.1938 48.7844 20.2167 48.767C20.5041 48.5522 20.7865 48.3308 21.0638 48.1031C21.0881 48.0831 21.1175 48.0702 21.1487 48.0659C21.1799 48.0617 21.2117 48.0662 21.2404 48.079C30.1906 52.1653 39.8798 52.1653 48.7242 48.079C48.7531 48.0654 48.7852 48.0603 48.8169 48.0641C48.8486 48.068 48.8785 48.0807 48.9033 48.1009C49.1809 48.3299 49.464 48.552 49.7526 48.767C49.7756 48.7842 49.794 48.8069 49.8062 48.833C49.8184 48.859 49.824 48.8877 49.8225 48.9165C49.821 48.9452 49.8125 48.9731 49.7977 48.9978C49.7829 49.0225 49.7622 49.0431 49.7375 49.0579C48.3745 49.8538 46.9467 50.5332 45.4694 51.089C45.4466 51.0978 45.4258 51.1114 45.4085 51.1288C45.3912 51.1462 45.3777 51.167 45.369 51.1899C45.3602 51.2128 45.3564 51.2373 45.3577 51.2618C45.3591 51.2863 45.3656 51.3103 45.3768 51.3321C46.1948 52.9123 47.1277 54.4303 48.168 55.8739C48.1893 55.9033 48.2192 55.9254 48.2536 55.937C48.288 55.9487 48.3252 55.9494 48.36 55.939C52.8285 54.5567 57.3596 52.4712 62.0373 49.036C62.0573 49.0212 62.074 49.0024 62.0862 48.9807C62.0984 48.959 62.106 48.935 62.1084 48.9103C63.2486 37.1139 60.1984 26.8668 54.0226 17.7832C54.0076 17.7536 53.9823 17.7305 53.9515 17.7181ZM25.9312 42.6953C23.2365 42.6953 21.0162 40.2215 21.0162 37.1833C21.0162 34.1452 23.1936 31.6714 25.9312 31.6714C28.6902 31.6714 30.8889 34.1671 30.8457 37.1833C30.8457 40.2215 28.6686 42.6953 25.9312 42.6953ZM44.1028 42.6953C41.4081 42.6953 39.188 40.2215 39.188 37.1833C39.188 34.1452 41.3652 31.6714 44.1028 31.6714C46.8618 31.6714 49.0605 34.1671 49.0176 37.1833C49.0176 40.2215 46.8618 42.6953 44.1028 42.6953Z" fill="#755C48"/>
</g>
</svg>
