<svg width="138" height="123" viewBox="0 0 138 123" fill="none" xmlns="http://www.w3.org/2000/svg">
<path fill-rule="evenodd" clip-rule="evenodd" d="M119.19 63.6001C119.415 63.6709 119.628 63.7772 119.82 63.9151C133.5 73.9801 139.41 83.2651 136.635 90.1051C134.37 95.4901 127.23 98.2801 115.815 98.2801C113.785 98.2801 111.625 98.19 109.335 98.0101L107.925 97.8601C101.499 105.719 92.8384 111.443 83.0892 114.274C73.34 117.105 62.9611 116.91 53.325 113.715C46.695 119.04 40.365 122.25 35.085 122.25C33.4547 122.272 31.8402 121.929 30.36 121.245C23.34 117.945 21.51 107.415 25.185 91.6201C25.2466 91.3799 25.348 91.1517 25.485 90.9451C21.1262 83.3653 18.8348 74.7737 18.84 66.0301V64.0501C10.26 57.7651 4.24497 51.5401 1.91997 46.0501C1.26178 44.7155 0.884863 43.26 0.812614 41.7737C0.740365 40.2874 0.974324 38.8022 1.49997 37.4101C4.25997 30.7501 16.32 27.9151 33.72 29.8351L34.08 29.9101C42.7881 21.4478 54.2733 16.4361 66.3996 15.807C78.5258 15.178 90.4679 18.9743 100.005 26.4901C101.58 19.3801 101.655 13.5601 100.155 9.81006C99.8491 8.93017 99.3648 8.12293 98.7324 7.43893C98.1 6.75493 97.3332 6.2089 96.48 5.83506C93 4.36506 87.33 5.73006 80.655 9.69006C80.1424 9.98216 79.5355 10.0612 78.9652 9.91026C78.3949 9.75928 77.9066 9.39032 77.6057 8.88285C77.3048 8.37539 77.2152 7.77002 77.3563 7.19715C77.4973 6.62428 77.8578 6.12974 78.36 5.82006C86.52 0.990059 93.195 -0.404942 98.205 1.68006C99.6107 2.27748 100.879 3.15674 101.932 4.26353C102.984 5.37032 103.799 6.68115 104.325 8.11506C106.395 13.2151 106.2 20.7001 103.86 29.8501C113.097 38.7264 118.583 50.8039 119.19 63.6001ZM98.775 31.3051C90.4982 24.1663 79.93 20.2425 69 20.2501C57.5929 20.2648 46.6017 24.5349 38.1765 32.2249C29.7513 39.915 24.4983 50.4717 23.445 61.8301C35.3609 69.7629 48.1374 76.3197 61.53 81.3751C65.37 82.8651 69.125 84.2151 72.795 85.4251C76.5742 80.1957 80.0789 74.7734 83.295 69.1801C84.39 67.2751 85.47 65.3251 86.505 63.3751C86.6438 63.1141 86.8328 62.883 87.061 62.695C87.2891 62.507 87.5521 62.3658 87.8349 62.2794C88.1176 62.1931 88.4146 62.1632 88.7089 62.1917C89.0032 62.2201 89.289 62.3062 89.55 62.4451C89.811 62.5839 90.0421 62.7729 90.2301 63.001C90.418 63.2292 90.5593 63.4922 90.6456 63.7749C90.732 64.0577 90.7618 64.3547 90.7334 64.649C90.7049 64.9433 90.6188 65.2291 90.48 65.4901C89.415 67.5451 88.32 69.5401 87.195 71.4901C84.15 76.7851 80.82 81.9901 77.325 86.9251C86.6199 89.841 96.1584 91.9143 105.825 93.1201C112.166 84.5386 115.299 74.0063 114.68 63.3542C114.061 52.702 109.728 42.6038 102.435 34.8151C101.325 38.3151 99.94 42.0051 98.28 45.8851C98.0453 46.4341 97.6021 46.8673 97.0479 47.0896C96.4937 47.3118 95.874 47.3048 95.325 47.0701C94.776 46.8353 94.3427 46.3922 94.1205 45.838C93.8982 45.2838 93.9053 44.6641 94.14 44.1151C95.9464 39.9442 97.4943 35.6661 98.775 31.3051ZM5.2661 41.7203C5.33826 42.6043 5.58786 43.4647 5.99997 44.2501V44.2951C7.85997 48.6301 12.555 53.6551 19.275 58.8001C20.5742 49.6732 24.3686 41.0824 30.24 33.9751C15.24 32.7451 7.07997 35.5801 5.57997 39.1051C5.30069 39.9469 5.19394 40.8363 5.2661 41.7203ZM69.975 89.2651C66.63 88.1401 63.255 86.9551 59.88 85.6351C47.0693 80.7611 34.8028 74.5625 23.28 67.1401C23.513 76.1491 26.3982 84.8893 31.5743 92.2667C36.7505 99.644 43.9876 105.331 52.38 108.615C58.852 102.744 64.7441 96.2644 69.975 89.2651ZM28.755 96.0451C26.655 107.31 27.87 115.095 32.19 117.135V117.165C36.15 119.04 42 116.76 48.45 111.84C40.6547 108.326 33.8784 102.891 28.755 96.0451ZM57.285 110.25C61.1085 111.255 65.0465 111.76 69 111.75C75.2665 111.748 81.4654 110.456 87.2102 107.952C92.955 105.449 98.1223 101.789 102.39 97.2001C92.95 95.811 83.6391 93.6538 74.55 90.7501C69.4089 97.7688 63.6293 104.297 57.285 110.25ZM110.97 93.5851C122.835 94.3501 130.695 92.4001 132.39 88.3501C134.175 84.1051 129.12 76.8151 119.145 69.0001C118.631 77.7717 115.811 86.2523 110.97 93.5851ZM50.055 68.055C43.2339 64.9518 36.629 61.3938 30.285 57.405V57.42C29.7997 57.0918 29.4615 56.5872 29.3424 56.0136C29.2233 55.4399 29.3326 54.8425 29.6472 54.3482C29.9617 53.8539 30.4566 53.5018 31.0267 53.3668C31.5968 53.2317 32.1971 53.3243 32.7 53.625C38.8712 57.5013 45.2956 60.9591 51.93 63.975C52.432 64.2471 52.8118 64.7 52.9923 65.2418C53.1729 65.7835 53.1406 66.3737 52.9022 66.8926C52.6637 67.4115 52.2369 67.8203 51.7082 68.0361C51.1795 68.252 50.5885 68.2587 50.055 68.055ZM71.0617 69.6727C70.4854 69.8217 69.8734 69.7362 69.36 69.435C68.8583 69.1296 68.4958 68.6402 68.3501 68.0713C68.2043 67.5023 68.2868 66.8989 68.58 66.39C69.675 64.545 70.755 62.655 71.79 60.765C76.3108 52.5766 80.1923 44.0512 83.4 35.265C83.6284 34.7445 84.0454 34.3297 84.5671 34.1041C85.0888 33.8784 85.6766 33.8586 86.2123 34.0486C86.748 34.2385 87.192 34.6242 87.455 35.1282C87.718 35.6321 87.7805 36.2168 87.63 36.765C84.3381 45.7684 80.3562 54.5043 75.72 62.895C74.655 64.815 73.56 66.75 72.435 68.64C72.1319 69.1523 71.638 69.5237 71.0617 69.6727Z" fill="black"/>
</svg>
