<svg width="142" height="117" viewBox="0 0 142 117" fill="none" xmlns="http://www.w3.org/2000/svg">
<path fill-rule="evenodd" clip-rule="evenodd" d="M95.534 67.4275C69.95 67.4275 49.136 88.243 49.136 113.828C49.136 114.425 49.3731 114.998 49.795 115.419C50.217 115.841 50.7893 116.078 51.386 116.078H139.682C140.279 116.078 140.851 115.841 141.273 115.419C141.695 114.998 141.932 114.425 141.932 113.828C141.932 88.243 121.118 67.4275 95.534 67.4275ZM53.6945 111.578C54.8675 89.5165 73.1855 71.9275 95.534 71.9275C117.881 71.9275 136.199 89.5165 137.372 111.578H53.6945ZM94.7615 63.286C109.562 63.286 121.604 51.247 121.604 36.4465C121.604 21.646 109.564 9.60696 94.7615 9.60696C79.964 9.60696 67.925 21.646 67.925 36.4465C67.925 51.247 79.964 63.286 94.7615 63.286ZM94.7615 14.1085C107.081 14.1085 117.104 24.13 117.104 36.448C117.104 48.766 107.081 58.7875 94.7615 58.7875C82.445 58.7875 72.425 48.766 72.425 36.448C72.425 24.13 82.445 14.1085 94.7615 14.1085ZM49.1465 77.398L53.6465 77.407L53.702 46.585C53.75 46.402 53.7755 46.21 53.7755 46.0165V5.43396L53.78 2.58696H53.7755V2.50746C53.7759 2.13441 53.6835 1.76712 53.5065 1.4387C53.3296 1.11027 53.0737 0.831027 52.762 0.626126C52.4503 0.421226 52.0924 0.297108 51.7208 0.264958C51.3491 0.232808 50.9753 0.293636 50.633 0.441961L1.727 21.583C1.32859 21.7565 0.988876 22.0416 0.748808 22.4039C0.508741 22.7661 0.378564 23.1901 0.373966 23.6246C0.369369 24.0592 0.490547 24.4858 0.722896 24.853C0.955245 25.2203 1.28885 25.5125 1.6835 25.6945L49.2005 47.4265L49.1465 77.398ZM8.156 23.7055L49.2755 5.93196L49.2095 42.4825L8.156 23.7055Z" fill="black"/>
</svg>
