<svg width="70" height="70" viewBox="0 0 70 70" fill="none" xmlns="http://www.w3.org/2000/svg">
<path d="M63.5993 29.2878H61.2499V29.1667H34.9999V40.8334H51.4835C49.0787 47.6248 42.6168 52.5 34.9999 52.5C25.3355 52.5 17.4999 44.6644 17.4999 35C17.4999 25.3357 25.3355 17.5 34.9999 17.5C39.461 17.5 43.5195 19.183 46.6097 21.9319L54.8595 13.6821C49.6503 8.82733 42.6824 5.83337 34.9999 5.83337C18.8926 5.83337 5.83325 18.8927 5.83325 35C5.83325 51.1073 18.8926 64.1667 34.9999 64.1667C51.1072 64.1667 64.1666 51.1073 64.1666 35C64.1666 33.0444 63.9653 31.1355 63.5993 29.2878Z" fill="#FFC107"/>
<path d="M9.19629 21.4244L18.779 28.4521C21.3719 22.0325 27.6515 17.5 35 17.5C39.4611 17.5 43.5196 19.183 46.6098 21.9319L54.8596 13.6821C49.6505 8.82733 42.6825 5.83337 35 5.83337C23.7971 5.83337 14.0817 12.1582 9.19629 21.4244Z" fill="#FF3D00"/>
<path d="M35 64.1667C42.5338 64.1667 49.3792 61.2836 54.5548 56.595L45.5278 48.9563C42.5016 51.2591 38.8028 52.5041 35 52.5C27.4138 52.5 20.9723 47.6627 18.5457 40.9121L9.03442 48.2402C13.8615 57.6859 23.6644 64.1667 35 64.1667Z" fill="#4CAF50"/>
<path d="M63.5994 29.2877H61.25V29.1666H35V40.8333H51.4835C50.3332 44.0656 48.2611 46.89 45.5233 48.9577L45.5277 48.9548L54.5548 56.5935C53.916 57.1739 64.1667 49.5833 64.1667 35C64.1667 33.0443 63.9654 31.1354 63.5994 29.2877Z" fill="#1976D2"/>
</svg>
