<svg width="121" height="90" viewBox="0 0 121 90" fill="none" xmlns="http://www.w3.org/2000/svg">
<path d="M42.1887 17.9626L28.3947 14.5388C26.8788 14.1633 25.2647 14.061 23.6853 14.2405C22.1059 14.42 20.6065 14.8761 19.3105 15.5712C18.0146 16.2663 16.9593 17.1805 16.2316 18.2385C15.5039 19.2965 15.1246 20.4679 15.125 21.6563V65.8426C15.1245 67.4173 15.7904 68.9522 17.0283 70.2297C18.2662 71.5072 20.0133 72.4624 22.022 72.96L42.1887 77.9588C44.257 78.4712 46.493 78.4712 48.5613 77.9588L72.4387 72.0413C74.5086 71.5281 76.7465 71.5281 78.8164 72.0413L92.6053 75.4613C94.1212 75.8368 95.7353 75.9391 97.3147 75.7596C98.8941 75.5801 100.394 75.124 101.689 74.4289C102.985 73.7338 104.041 72.8196 104.768 71.7616C105.496 70.7036 105.875 69.5322 105.875 68.3438V24.1576C105.876 22.5833 105.211 21.0487 103.974 19.7713C102.737 18.4938 100.991 17.5383 98.983 17.0401L78.8164 12.0413C76.7465 11.5281 74.5086 11.5281 72.4387 12.0413L48.5563 17.9588C46.4879 18.4712 44.252 18.4712 42.1836 17.9588" stroke="black" stroke-width="2" stroke-linecap="round" stroke-linejoin="round"/>
<path d="M45.375 18.75V78.75M75.625 11.25V71.25" stroke="black" stroke-width="2" stroke-linejoin="round"/>
</svg>
