<svg width="120" height="133" viewBox="0 0 120 133" fill="none" xmlns="http://www.w3.org/2000/svg">
<path fill-rule="evenodd" clip-rule="evenodd" d="M70.2885 43.2485H70.305C77.4345 43.259 83.241 49.058 83.25 56.1755C83.253 59.4905 82.053 62.579 79.869 64.8725C75.6266 69.324 63.1861 81.555 61.7306 82.986L61.6095 83.105C61.1896 83.5174 60.6247 83.7489 60.0362 83.7497C59.4476 83.7505 58.8821 83.5207 58.461 83.1095C57.894 82.556 44.52 69.5 40.0965 64.841C37.941 62.567 36.7515 59.498 36.7485 56.1965C36.7416 54.5018 37.0716 52.8225 37.7192 51.2564C38.3668 49.6903 39.3192 48.2684 40.521 47.0735C41.7178 45.8708 43.1413 44.9174 44.7091 44.2686C46.2769 43.6197 47.9578 43.2883 49.6545 43.2935H49.671C51.6644 43.2987 53.6298 43.7629 55.4148 44.6502C57.1998 45.5375 58.7564 46.824 59.964 48.41C61.1659 46.807 62.7247 45.506 64.5167 44.6101C66.3088 43.7141 68.285 43.248 70.2885 43.2485ZM60.0285 78.347C63.768 74.6645 73.1385 65.4125 76.611 61.769C77.9925 60.3185 78.7515 58.334 78.75 56.1785C78.744 51.536 74.9535 47.753 70.299 47.747H70.2885C68.4314 47.7462 66.6264 48.3612 65.1561 49.4958C63.6858 50.6303 62.6332 52.2204 62.163 54.017C62.0385 54.4973 61.7584 54.9229 61.3666 55.2274C60.9748 55.5318 60.4932 55.698 59.997 55.7H59.9865C59.4922 55.7 59.0116 55.5373 58.619 55.2369C58.2264 54.9365 57.9437 54.5152 57.8145 54.038C57.3281 52.2481 56.2674 50.6674 54.7953 49.539C53.3232 48.4105 51.5213 47.7968 49.6665 47.792H49.656C48.5504 47.7881 47.455 48.0036 46.4333 48.4261C45.4116 48.8487 44.4839 49.4698 43.704 50.2535C42.9222 51.031 42.3026 51.956 41.8813 52.975C41.46 53.9939 41.2454 55.0864 41.25 56.189C41.2515 58.3355 42.003 60.3065 43.3635 61.742C46.839 65.405 56.2695 74.6675 60.0285 78.347ZM115.746 38.0804C115.933 38.3096 116.072 38.5733 116.157 38.8565C118.209 45.731 119.25 53.0225 119.253 60.5315C119.259 65.7093 118.746 70.8746 117.721 75.95C117.603 76.5348 117.256 77.0484 116.759 77.3778C116.261 77.7072 115.653 77.8254 115.068 77.7065C114.483 77.5876 113.97 77.2412 113.64 76.7435C113.311 76.2459 113.193 75.6378 113.311 75.053C114.267 70.358 114.751 65.4725 114.751 60.5315C114.751 53.4605 113.773 46.601 111.845 40.145C111.76 39.8618 111.732 39.5648 111.762 39.2708C111.792 38.9768 111.88 38.6917 112.02 38.4316C112.161 38.1716 112.351 37.9417 112.58 37.7552C112.81 37.5687 113.073 37.4291 113.357 37.3445C113.64 37.2599 113.937 37.2319 114.231 37.2621C114.525 37.2923 114.81 37.3801 115.07 37.5205C115.33 37.6609 115.56 37.8511 115.746 38.0804ZM36.1245 9.3215C35.838 9.443 35.541 9.5 35.25 9.5C34.7307 9.49994 34.2275 9.32029 33.8256 8.99151C33.4237 8.66273 33.1479 8.20506 33.0449 7.69612C32.942 7.18717 33.0182 6.65828 33.2607 6.19914C33.5032 5.74 33.8971 5.37887 34.3755 5.177C41.7315 2.0735 49.596 0.5 57.75 0.5C58.3467 0.5 58.919 0.737053 59.341 1.15901C59.7629 1.58097 60 2.15326 60 2.75C60 3.34674 59.7629 3.91903 59.341 4.34099C58.919 4.76295 58.3467 5 57.75 5C50.2005 5 42.924 6.455 36.1245 9.3215ZM23.9517 15.6985C23.9092 16.2839 23.6396 16.8295 23.2005 17.219C17.3335 22.1623 12.6193 28.3296 9.38874 35.2882C6.15821 42.2468 4.4896 49.8281 4.5 57.5C4.5 58.0967 4.26295 58.669 3.84099 59.091C3.41903 59.5129 2.84674 59.75 2.25 59.75C1.65326 59.75 1.08097 59.5129 0.65901 59.091C0.237053 58.669 0 58.0967 0 57.5C0 40.595 7.3995 24.659 20.301 13.7795C20.7591 13.4126 21.3425 13.2392 21.9267 13.2963C22.5109 13.3535 23.0496 13.6366 23.4279 14.0854C23.8062 14.5342 23.9942 15.113 23.9517 15.6985ZM17.25 60.827C17.25 36.929 36.4245 17.4875 59.994 17.4875C83.5695 17.4875 102.75 36.929 102.75 60.827C102.746 68.7851 100.564 76.5903 96.4395 83.396C96.3711 83.5939 96.2736 83.7805 96.15 83.9495L61.128 132.062C60.7035 132.644 60.027 132.988 59.3085 132.988H59.2875C58.56 132.98 57.882 132.622 57.465 132.026L23.8245 83.9136C23.7165 83.7606 23.6295 83.5956 23.565 83.4245C19.4361 76.61 17.2521 68.7949 17.25 60.827ZM92.226 81.6905C92.2663 81.6041 92.3113 81.52 92.361 81.4385C96.2066 75.2511 98.2468 68.1122 98.2515 60.827C98.2515 39.41 81.0885 21.9875 59.9955 21.9875C38.9085 21.9875 21.7515 39.4115 21.7515 60.827C21.7544 68.111 23.7897 75.2497 27.6285 81.44C27.678 81.5213 27.7226 81.6055 27.762 81.692L59.346 126.863L92.226 81.6905Z" fill="black"/>
</svg>
