<svg width="117" height="118" viewBox="0 0 117 118" fill="none" xmlns="http://www.w3.org/2000/svg">
<path fill-rule="evenodd" clip-rule="evenodd" d="M98.5 82C93.9879 82.0031 89.6415 83.7007 86.3218 86.7565C83.002 89.8124 80.951 94.0036 80.575 98.5H26.665C25.893 98.4975 25.1386 98.2685 24.4954 97.8414C23.8523 97.4142 23.3486 96.8078 23.0468 96.0972C22.7449 95.3865 22.6583 94.603 22.7975 93.8436C22.9367 93.0842 23.2957 92.3823 23.83 91.825L90.805 31.945C91.9996 30.772 92.8178 29.2699 93.1555 27.6302C93.4931 25.9904 93.3349 24.2872 92.7009 22.7378C92.067 21.1883 90.986 19.8626 89.5958 18.9298C88.2056 17.997 86.5692 17.4992 84.895 17.5H36.895C36.5194 12.9368 34.4189 8.68832 31.0212 5.61927C27.6235 2.55022 23.1839 0.891307 18.6062 0.980203C14.0285 1.0691 9.6567 2.89912 6.38072 6.09777C3.10473 9.29641 1.1708 13.6233 0.972579 18.1975C0.77436 22.7718 2.32675 27.2497 5.31376 30.7198C8.30077 34.1898 12.4979 36.3912 17.0508 36.8757C21.6036 37.3603 26.17 36.0916 29.8205 33.328C33.4709 30.5644 35.931 26.5135 36.7 22H84.895C85.6671 22.0025 86.4214 22.2315 87.0646 22.6586C87.7078 23.0857 88.2115 23.6921 88.5133 24.4027C88.8151 25.1134 88.9018 25.8969 88.7625 26.6563C88.6233 27.4158 88.2643 28.1176 87.73 28.675L20.755 88.555C19.5605 89.7279 18.7422 91.23 18.4046 92.8698C18.0669 94.5095 18.2252 96.2127 18.8591 97.7621C19.4931 99.3116 20.574 100.637 21.9642 101.57C23.3544 102.503 24.9909 103.001 26.665 103H80.77C81.3421 106.385 82.8701 109.535 85.1737 112.08C87.4773 114.625 90.4605 116.458 93.7716 117.363C97.0827 118.268 100.584 118.208 103.861 117.189C107.139 116.17 110.057 114.235 112.272 111.612C114.486 108.989 115.905 105.788 116.359 102.386C116.814 98.9832 116.287 95.5218 114.839 92.4093C113.392 89.2969 111.085 86.6632 108.19 84.8189C105.295 82.9746 101.933 81.9965 98.5 82ZM19 32.5C16.33 32.5 13.7199 31.7082 11.4998 30.2248C9.27975 28.7414 7.54942 26.633 6.52764 24.1662C5.50586 21.6994 5.23851 18.985 5.75941 16.3662C6.28031 13.7475 7.56607 11.342 9.45407 9.45401C11.3421 7.56601 13.7476 6.28026 16.3663 5.75935C18.985 5.23845 21.6994 5.5058 24.1662 6.52758C26.633 7.54937 28.7415 9.27969 30.2249 11.4998C31.7083 13.7198 32.5 16.3299 32.5 19C32.5 22.5804 31.0777 26.0142 28.546 28.5459C26.0142 31.0776 22.5804 32.5 19 32.5ZM98.5 113.5C95.83 113.5 93.2199 112.708 90.9998 111.225C88.7798 109.741 87.0494 107.633 86.0276 105.166C85.0059 102.699 84.7385 99.985 85.2594 97.3662C85.7803 94.7475 87.0661 92.342 88.9541 90.454C90.8421 88.566 93.2476 87.2803 95.8663 86.7594C98.485 86.2385 101.199 86.5058 103.666 87.5276C106.133 88.5494 108.241 90.2797 109.725 92.4998C111.208 94.7198 112 97.3299 112 100C112 103.58 110.578 107.014 108.046 109.546C105.514 112.078 102.08 113.5 98.5 113.5Z" fill="black"/>
</svg>
