<svg width="73" height="73" viewBox="0 0 73 73" fill="none" xmlns="http://www.w3.org/2000/svg">
<path fill-rule="evenodd" clip-rule="evenodd" d="M45.9375 50.3583C40.3215 54.8455 33.2005 57.0119 26.037 56.4127C18.8736 55.8135 12.2114 52.4941 7.41893 47.1363C2.62643 41.7785 0.0673588 34.789 0.267301 27.6033C0.467243 20.4176 3.41102 13.5812 8.49404 8.49822C13.5771 3.4152 20.4135 0.471424 27.5991 0.271482C34.7848 0.0715397 41.7743 2.63061 47.1322 7.42312C52.49 12.2156 55.8093 18.8777 56.4085 26.0412C57.0077 33.2047 54.8413 40.3256 50.3541 45.9417L71.8375 67.4208C72.1445 67.7069 72.3908 68.0519 72.5616 68.4352C72.7324 68.8186 72.8242 69.2324 72.8316 69.652C72.839 70.0716 72.7618 70.4884 72.6047 70.8775C72.4475 71.2666 72.2136 71.6201 71.9168 71.9168C71.6201 72.2136 71.2666 72.4475 70.8775 72.6047C70.4884 72.7618 70.0716 72.839 69.652 72.8316C69.2324 72.8242 68.8186 72.7324 68.4352 72.5616C68.0519 72.3908 67.7069 72.1445 67.4208 71.8375L45.9375 50.3583ZM12.9125 43.85C9.85432 40.7915 7.77145 36.8951 6.92711 32.6532C6.08278 28.4113 6.51487 24.0143 8.16878 20.0179C9.82269 16.0215 12.6242 12.6051 16.2192 10.2004C19.8142 7.79574 24.0414 6.51075 28.3665 6.50784C32.6916 6.50493 36.9205 7.78423 40.5188 10.1841C44.1171 12.5839 46.9231 15.9965 48.5824 19.9907C50.2417 23.9849 50.6797 28.3813 49.8411 32.6243C49.0025 36.8674 46.9249 40.7666 43.8708 43.8292L43.85 43.85L43.8291 43.8667C39.7254 47.9609 34.1643 50.2589 28.3674 50.2557C22.5705 50.2526 17.0118 47.9487 12.9125 43.85Z" fill="black"/>
</svg>
