<svg width="70" height="70" viewBox="0 0 70 70" fill="none" xmlns="http://www.w3.org/2000/svg">
<g clip-path="url(#clip0_20_81)">
<path d="M70 35C70 44.2826 66.3125 53.185 59.7487 59.7487C53.185 66.3125 44.2826 70 35 70C25.7174 70 16.815 66.3125 10.2513 59.7487C3.68749 53.185 0 44.2826 0 35C0 25.7174 3.68749 16.815 10.2513 10.2513C16.815 3.68749 25.7174 0 35 0C44.2826 0 53.185 3.68749 59.7487 10.2513C66.3125 16.815 70 25.7174 70 35ZM36.2556 25.8388C32.849 27.2563 26.0444 30.1875 15.8419 34.6325C14.1881 35.2887 13.3204 35.9333 13.2388 36.5662C13.1075 37.6294 14.4419 38.0494 16.2575 38.6225L17.0231 38.8631C18.8081 39.445 21.2144 40.1231 22.4612 40.1494C23.5987 40.1785 24.8646 39.7119 26.2587 38.7494C35.7933 32.3152 40.7138 29.0631 41.02 28.9931C41.2388 28.9406 41.545 28.8794 41.7463 29.0631C41.9475 29.2469 41.93 29.5881 41.9081 29.68C41.7769 30.2444 36.54 35.1094 33.8319 37.6294C32.9875 38.4169 32.3881 38.9725 32.2656 39.0994C31.996 39.3751 31.7218 39.6464 31.4431 39.9131C29.7806 41.5144 28.5381 42.7131 31.5088 44.6731C32.9394 45.6181 34.0856 46.3925 35.2275 47.1712C36.47 48.02 37.7125 48.8644 39.3225 49.9231C39.7308 50.1915 40.1246 50.4642 40.5037 50.7412C41.9519 51.7737 43.26 52.7013 44.8656 52.5525C45.8019 52.465 46.7687 51.59 47.2588 48.965C48.4181 42.7656 50.6975 29.3387 51.2225 23.8044C51.2555 23.3443 51.2364 22.882 51.1656 22.4263C51.1232 22.0588 50.9454 21.7203 50.6669 21.4769C50.2683 21.2032 49.7941 21.0609 49.3106 21.07C47.9981 21.0919 45.9725 21.7963 36.2556 25.8388Z" fill="#1E1E1E"/>
</g>
<defs>
<clipPath id="clip0_20_81">
<rect width="70" height="70" fill="white"/>
</clipPath>
</defs>
</svg>
