<svg width="90" height="90" viewBox="0 0 90 90" fill="none" xmlns="http://www.w3.org/2000/svg">
<path d="M45 84.375C37.2124 84.375 29.5996 82.0657 23.1244 77.7391C16.6493 73.4126 11.6025 67.263 8.62226 60.0682C5.64206 52.8733 4.8623 44.9563 6.3816 37.3183C7.90089 29.6803 11.651 22.6644 17.1577 17.1577C22.6644 11.651 29.6803 7.90089 37.3183 6.3816C44.9563 4.8623 52.8733 5.64206 60.0682 8.62226C67.263 11.6025 73.4126 16.6493 77.7391 23.1244C82.0657 29.5996 84.375 37.2124 84.375 45C84.375 55.4429 80.2266 65.4581 72.8423 72.8423C65.4581 80.2266 55.4429 84.375 45 84.375ZM45 11.25C38.3249 11.25 31.7997 13.2294 26.2495 16.9379C20.6994 20.6464 16.3735 25.9174 13.8191 32.0845C11.2646 38.2515 10.5963 45.0375 11.8985 51.5843C13.2008 58.1312 16.4151 64.1448 21.1352 68.8649C25.8552 73.5849 31.8689 76.7993 38.4157 78.1015C44.9626 79.4038 51.7486 78.7354 57.9156 76.1809C64.0826 73.6265 69.3536 69.3007 73.0621 63.7505C76.7706 58.2004 78.75 51.6751 78.75 45C78.75 36.049 75.1942 27.4645 68.8649 21.1352C62.5355 14.8058 53.9511 11.25 45 11.25Z" fill="black"/>
<path d="M57.9094 61.875L42.1875 46.1531V19.6875H47.8125V43.8187L61.875 57.9094L57.9094 61.875Z" fill="black"/>
</svg>
