<svg width="40" height="40" viewBox="0 0 40 40" fill="none" xmlns="http://www.w3.org/2000/svg">
<path d="M11.0675 18.5675L19.5575 27.0575C19.6156 27.1157 19.6846 27.1619 19.7605 27.1934C19.8364 27.2249 19.9178 27.2411 20 27.2411C20.0822 27.2411 20.1636 27.2249 20.2396 27.1934C20.3155 27.1619 20.3845 27.1157 20.4425 27.0575L28.9325 18.5675C29.0202 18.4801 29.0799 18.3686 29.1041 18.2472C29.1283 18.1259 29.1159 18 29.0685 17.8857C29.0211 17.7713 28.9408 17.6736 28.8378 17.605C28.7349 17.5363 28.6138 17.4998 28.49 17.5H11.51C11.3863 17.4998 11.2652 17.5363 11.1622 17.605C11.0592 17.6736 10.9789 17.7713 10.9315 17.8857C10.8842 18 10.8718 18.1259 10.896 18.2472C10.9202 18.3686 10.9799 18.4801 11.0675 18.5675Z" fill="white"/>
</svg>
