<svg width="70" height="70" viewBox="0 0 70 70" fill="none" xmlns="http://www.w3.org/2000/svg">
<path d="M27.6763 0.00875036L29.8025 0H40.1975L42.3267 0.00875036L44.9925 0.0379182L46.2554 0.0583358L47.4746 0.0904204L48.65 0.131255L49.7817 0.177924L50.8725 0.239177L51.9225 0.312096L52.9287 0.3996L53.9 0.495854C58.975 1.06754 62.4546 2.2926 65.0796 4.9177C67.7046 7.54281 68.9296 11.0196 69.5013 16.0978L69.6004 17.069L69.685 18.0783L69.7579 19.1283L69.8163 20.2163L69.8892 21.9313L69.9242 23.1272L69.9621 25.0056L69.9883 27.6745L70 30.5329L69.9971 40.1963L69.9883 42.3255L69.9592 44.9915L69.9388 46.2544L69.9067 47.4736L69.8658 48.6491L69.8192 49.7808L69.7579 50.8717L69.685 51.9217L69.5975 52.928L69.5013 53.8993C68.9296 58.9745 67.7046 62.4543 65.0796 65.0794C62.4546 67.7045 58.9779 68.9295 53.9 69.5012L52.9287 69.6004L51.9196 69.685L50.8696 69.7579L49.7817 69.8162L48.0667 69.8892L46.8708 69.9242L44.9925 69.9621L42.3237 69.9883L39.4654 70L29.8025 69.9971L27.6733 69.9883L25.0075 69.9592L23.7446 69.9387L22.5254 69.9067L21.35 69.8658L20.2183 69.8192L19.1275 69.7579L18.0775 69.685L17.0713 69.5975L16.1 69.5012C11.025 68.9295 7.54542 67.7045 4.92042 65.0794C2.29542 62.4543 1.07042 58.9775 0.49875 53.8993L0.399583 52.928L0.315 51.9188L0.242083 50.8688L0.18375 49.7808L0.110833 48.0658L0.0758333 46.8699L0.0379167 44.9915L0.0116667 42.3226L0 39.4641L0.00291667 29.8008L0.0116667 27.6716L0.0408333 25.0056L0.06125 23.7427L0.0933333 22.5234L0.134167 21.348L0.180833 20.2163L0.242083 19.1254L0.315 18.0753L0.4025 17.069L0.49875 16.0978C1.07042 11.0225 2.29542 7.54281 4.92042 4.9177C7.54542 2.2926 11.0221 1.06754 16.1 0.495854L17.0713 0.396683L18.0804 0.312096L19.1304 0.239177L20.2183 0.180841L21.9333 0.107921L23.1292 0.0729197L25.0075 0.0350015L27.6763 0.00875036ZM19.8042 21.2896H11.8125C12.1917 39.4904 21.2917 50.4284 37.2458 50.4284H38.15V40.0154C44.0125 40.5988 48.4458 44.8865 50.225 50.4284H58.5083C56.2333 42.1447 50.2542 37.5653 46.5208 35.8152C50.2542 33.6568 55.5042 28.4066 56.7583 21.2896H49.2333C47.6 27.0649 42.7583 32.3151 38.15 32.8109V21.2896H30.625V41.4738C25.9583 40.3071 20.0667 34.6485 19.8042 21.2896Z" fill="#1E1E1E"/>
</svg>
