<svg width="70" height="70" viewBox="0 0 70 70" fill="none" xmlns="http://www.w3.org/2000/svg">
<path d="M14.3906 34.7812C14.3906 38.6719 15.4844 42.4688 17.5469 45.7344L18.0312 46.5156L15.9531 54.1094L23.75 52.0625L24.5 52.5156C27.6562 54.3906 31.2812 55.3906 34.9844 55.3906H35C46.3438 55.3906 55.8281 46.1562 55.8281 34.7969C55.8281 29.2969 53.4531 24.125 49.5625 20.2344C45.6562 16.3281 40.5 14.1875 35 14.1875C23.6406 14.1875 14.4062 23.4219 14.3906 34.7812ZM42.9375 46.5625C40.9687 46.8594 39.4375 46.7031 35.5156 45.0156C29.7656 42.5312 25.8594 36.9688 25.0625 35.8438C25 35.75 24.9531 35.7031 24.9375 35.6719C24.625 35.2656 22.4062 32.3125 22.4062 29.2656C22.4062 26.3906 23.8125 24.9062 24.4688 24.2188C24.5156 24.1719 24.5469 24.1406 24.5781 24.0938C25.1406 23.4688 25.8125 23.3125 26.2344 23.3125C26.6406 23.3125 27.0625 23.3125 27.4219 23.3281H27.5469C27.9062 23.3281 28.3594 23.3281 28.8125 24.3906C29 24.8438 29.2812 25.5312 29.5781 26.2344C30.0938 27.4844 30.625 28.7812 30.7188 28.9844C30.875 29.2969 30.9844 29.6562 30.7656 30.0625C30.2344 31.125 29.6875 31.6875 29.3125 32.0938C28.8281 32.5938 28.6094 32.8281 28.9531 33.4375C31.3438 37.5469 33.7344 38.9688 37.375 40.7969C38 41.1094 38.3594 41.0625 38.7188 40.6406C39.0781 40.2344 40.2656 38.8281 40.6719 38.2188C41.0781 37.5938 41.5 37.7031 42.0625 37.9062C42.625 38.1094 45.6719 39.6094 46.2969 39.9219C46.4219 39.9844 46.5312 40.0312 46.625 40.0781C47.0625 40.2969 47.3594 40.4375 47.4844 40.6406C47.625 40.9375 47.625 42.1875 47.1094 43.625C46.5938 45.0781 44.125 46.3906 42.9375 46.5625ZM70 10C70 4.48438 65.5156 0 60 0H10C4.48438 0 0 4.48438 0 10V60C0 65.5156 4.48438 70 10 70H60C65.5156 70 70 65.5156 70 60V10ZM23.1406 56.5469L10 60L13.5156 47.1562C11.3438 43.4062 10.2031 39.1406 10.2031 34.7656C10.2188 21.1094 21.3281 10 34.9844 10C41.6094 10 47.8281 12.5781 52.5156 17.2656C57.1875 21.9531 60 28.1719 60 34.7969C60 48.4531 48.6406 59.5625 34.9844 59.5625C30.8281 59.5625 26.75 58.5156 23.1406 56.5469Z" fill="#1E1E1E"/>
</svg>
